<?xml version="1.0" encoding="UTF-8"?><svg id="Layer_2" xmlns="http://www.w3.org/2000/svg" viewBox="0 0 770.54 770.53"><defs><style>.cls-1{fill:#7c7c7c;}.cls-2{fill:#424242;}.cls-3{fill:#36b6dd;}.cls-4{fill:#32b224;}.cls-5{fill:#686868;}.cls-6{fill:#c6c6c6;}.cls-7{fill:#ededed;}</style></defs><g id="Layer_1-2"><path class="cls-6" d="M5,520.8V42.63C5,21.88,21.88,5,42.63,5h685.27c20.75,0,37.63,16.88,37.63,37.63v478.17H5Z"/><path class="cls-2" d="M727.91,10c18.02,0,32.63,14.61,32.63,32.63v473.17H10V42.63c0-18.02,14.61-32.63,32.63-32.63h685.27M727.91,0H42.63C19.12,0,0,19.12,0,42.63v483.17h770.54V42.63c0-23.51-19.12-42.63-42.63-42.63h0Z"/><path class="cls-7" d="M107.9,488.17c-38.74,0-70.26-30.69-70.26-68.41V18.43h690.27c20.75,0,37.63,16.47,37.63,36.71v433.03H107.9Z"/><path class="cls-2" d="M727.91,23.43c18.02,0,32.63,14.2,32.63,31.71v428.03H107.9c-36.04,0-65.26-28.39-65.26-63.41V23.43h685.27M727.91,13.43H32.63v406.32c0,40.48,33.76,73.41,75.26,73.41h662.64V55.14c0-23-19.12-41.71-42.63-41.71h0Z"/><path class="cls-6" d="M42.63,618.69c-20.75,0-37.63-16.88-37.63-37.63v-70.26h760.54v70.26c0,20.75-16.88,37.63-37.63,37.63H42.63Z"/><path class="cls-2" d="M760.54,515.8v65.26c0,18.02-14.61,32.63-32.63,32.63H42.63c-18.02,0-32.63-14.61-32.63-32.63v-65.26h750.54M770.54,505.8H0v75.26c0,23.51,19.12,42.63,42.63,42.63h685.27c23.51,0,42.63-19.12,42.63-42.63v-75.26h0Z"/><path class="cls-7" d="M74.97,586.06c-20.59,0-37.34-16.88-37.34-37.63v-37.63h721.53v75.26H74.97Z"/><path class="cls-2" d="M754.16,515.8v65.26H74.97c-17.86,0-32.34-14.61-32.34-32.63v-32.63h711.53M764.16,505.8H32.63v42.63c0,23.51,18.99,42.63,42.34,42.63h689.19v-85.26h0Z"/><path class="cls-6" d="M385.24,586.06c-5.69-.03-11.03-2.28-15.04-6.33-4-4.05-6.19-9.42-6.16-15.11.07-11.69,9.63-21.19,21.31-21.19h.13c5.61.03,10.9,2.23,14.89,6.18,4.04,4.01,6.28,9.35,6.3,15.05.02,5.69-2.17,11.06-6.18,15.1-3.97,4.01-9.49,6.3-15.13,6.3h-.12Z"/><path class="cls-2" d="M385.36,548.43s.06,0,.1,0c4.27.02,8.36,1.72,11.39,4.73,6.4,6.35,6.44,16.68.1,23.07-3.06,3.09-7.24,4.83-11.58,4.83-.03,0-.06,0-.09,0-9.01-.05-16.27-7.4-16.22-16.41.05-8.98,7.35-16.22,16.31-16.22M385.36,538.43h0c-14.43,0-26.23,11.74-26.31,26.16-.08,14.51,11.65,26.38,26.16,26.47h.15c6.97,0,13.78-2.84,18.68-7.78,10.22-10.3,10.15-27-.15-37.22-4.92-4.88-11.45-7.59-18.38-7.63h-.16Z"/><path class="cls-6" d="M233.42,765.53v-37.63c0-20.75,16.89-37.63,37.64-37.63h14.2c19.12-19.9,29.65-45.93,29.74-73.49-.68-2.08-.47-3.91.64-5.44,2.06-2.85,5.04-2.85,14.91-2.85,3.25,0,7.43.03,12.81.06,9.75.06,23.11.14,41.92.14,17.42,0,30.32-.06,39.73-.11,5.52-.03,9.89-.05,13.34-.05,11.72,0,14.5,0,16.58,2.91,1.09,1.53,1.3,3.34.62,5.39.11,27.6,10.65,53.59,29.73,73.44h14.22c20.75,0,37.63,16.88,37.63,37.63v37.63H233.42Z"/><path class="cls-2" d="M330.56,613.49c9.07,0,25.43.2,54.72.2,27.58,0,43.7-.15,53.06-.15,16.05,0,12.2.45,12.2,2.92.02,29.56,11.75,57.89,32.62,78.8h.01s16.32.01,16.32.01c18.02,0,32.63,14.61,32.63,32.63v32.63H238.42v-32.63c0-18.02,14.61-32.63,32.64-32.63h16.31c.22-.22.43-.44.64-.66,20.48-20.84,31.98-48.9,31.99-78.15,0-2.48-3.57-2.97,10.55-2.97M330.56,603.49c-10.58,0-15.41,0-18.97,4.92-1.35,1.87-2.67,4.92-1.59,9.06-.26,25.32-9.76,49.24-26.9,67.79h-12.04c-23.51,0-42.64,19.12-42.64,42.63v42.63h313.69v-42.63c0-23.51-19.12-42.63-42.63-42.63h-12.06c-17.11-18.54-26.61-42.4-26.88-67.74,1.12-4.32-.45-7.45-1.55-8.99-3.11-4.35-8-4.67-10.35-4.82-2.03-.13-4.92-.18-10.31-.18-3.46,0-7.83.02-13.36.05-9.41.05-22.29.11-39.7.11-18.79,0-32.13-.08-41.87-.14-5.35-.03-9.57-.06-12.84-.06h0Z"/><path class="cls-6" d="M760.54,42.63v473.17H10V42.63c0-18.02,14.61-32.63,32.63-32.63h685.27c18.02,0,32.63,14.61,32.63,32.63Z"/><path class="cls-7" d="M760.54,42.63v440.53H107.9c-36.04,0-65.26-29.22-65.26-65.26V10h685.27c18.02,0,32.63,14.61,32.63,32.63Z"/><path class="cls-6" d="M760.54,515.8v65.26c0,18.02-14.61,32.63-32.63,32.63H42.63c-18.02,0-32.63-14.61-32.63-32.63v-65.26h750.54Z"/><path class="cls-7" d="M760.54,515.8v65.26H75.26c-18.02,0-32.63-14.61-32.63-32.63v-32.63h717.91Z"/><path class="cls-6" d="M385.27,581.06c-9.01-.05-16.27-7.4-16.22-16.41.05-9.01,7.4-16.27,16.41-16.22,4.27.02,8.36,1.72,11.39,4.73,6.4,6.35,6.44,16.68.1,23.07-3.09,3.11-7.3,4.85-11.68,4.83Z"/><path class="cls-6" d="M271.06,695.27h228.42c18.02,0,32.63,14.61,32.63,32.63v32.63H238.42v-32.63c0-18.02,14.61-32.63,32.63-32.63Z"/><path class="cls-6" d="M450.53,616.47c0-3.92,9.63-2.77-65.26-2.77s-65.26-1.31-65.26,2.77c-.01,29.55-11.75,57.89-32.63,78.81h195.79c-20.88-20.91-32.62-49.25-32.63-78.81Z"/><path class="cls-2" d="M288.01,694.61c-.21.22-.42.44-.64.66h-16.31c0-.74-2.69-.81,16.95-.66Z"/><path class="cls-7" d="M532.11,727.9h-228.42c-18.02,0-32.63-14.61-32.63-32.63h16.31c.22-.22.43-.44.64-.66,22.63.17,74.91.62,195.14.65,5.31.01,10.75.01,16.33.01,18.02,0,32.63,14.61,32.63,32.63Z"/><path class="cls-7" d="M460.65,662.64h-59.06c-27.03,0-48.95-21.91-48.95-48.95h97.9c-.47,16.88,3,33.64,10.12,48.95Z"/><rect class="cls-5" x="70.26" y="70.26" width="630.01" height="385.27"/><path class="cls-2" d="M695.27,75.26v375.27H75.26V75.26h620.01M705.27,65.26H65.26v395.27h640.01V65.26h0Z"/><path class="cls-1" d="M695.27,75.26v342.64h-244.74c-189.23,0-342.64-153.4-342.64-342.64h587.38Z"/><path class="cls-4" d="M132.68,234.54v-108.96h46.31c11.64,0,20.11.98,25.38,2.94,5.28,1.96,9.5,5.44,12.67,10.44,3.17,5.01,4.76,10.73,4.76,17.17,0,8.18-2.4,14.93-7.21,20.25-4.81,5.33-11.99,8.68-21.55,10.07,4.76,2.78,8.68,5.82,11.78,9.14,3.1,3.32,7.27,9.22,12.52,17.69l13.3,21.26h-26.31l-15.91-23.71c-5.65-8.47-9.51-13.81-11.6-16.02-2.08-2.2-4.29-3.72-6.62-4.53-2.33-.82-6.02-1.23-11.07-1.23h-4.46v45.49h-22ZM154.68,171.66h16.28c10.55,0,17.14-.45,19.77-1.34,2.63-.89,4.68-2.43,6.17-4.61,1.49-2.18,2.23-4.91,2.23-8.18,0-3.67-.98-6.63-2.94-8.88-1.96-2.25-4.72-3.68-8.29-4.27-1.78-.25-7.14-.37-16.05-.37h-17.17v27.65Z"/><path class="cls-4" d="M242.54,234.54v-108.96h35.31c13.38,0,22.1.55,26.16,1.64,6.24,1.64,11.47,5.19,15.68,10.67,4.21,5.48,6.32,12.55,6.32,21.22,0,6.69-1.21,12.31-3.64,16.87-2.43,4.56-5.51,8.14-9.25,10.74-3.74,2.6-7.54,4.32-11.41,5.17-5.25,1.04-12.86,1.56-22.82,1.56h-14.35v41.1h-22ZM264.54,144.01v30.92h12.04c8.67,0,14.47-.57,17.39-1.71,2.92-1.14,5.21-2.92,6.88-5.35,1.66-2.43,2.49-5.25,2.49-8.47,0-3.96-1.16-7.23-3.49-9.81-2.33-2.58-5.28-4.19-8.85-4.83-2.63-.49-7.9-.74-15.83-.74h-10.63Z"/><path class="cls-4" d="M394.76,194.47v-18.36h47.42v43.41c-4.61,4.46-11.29,8.39-20.03,11.78-8.75,3.39-17.6,5.09-26.57,5.09-11.4,0-21.33-2.39-29.81-7.17-8.47-4.78-14.84-11.62-19.1-20.51-4.26-8.89-6.39-18.57-6.39-29.02,0-11.35,2.38-21.43,7.14-30.25,4.76-8.82,11.72-15.58,20.89-20.29,6.99-3.62,15.68-5.43,26.09-5.43,13.53,0,24.09,2.84,31.7,8.51,7.61,5.67,12.5,13.52,14.68,23.52l-21.85,4.09c-1.54-5.35-4.42-9.58-8.66-12.67-4.24-3.1-9.53-4.65-15.87-4.65-9.61,0-17.26,3.05-22.93,9.14-5.67,6.09-8.51,15.14-8.51,27.13,0,12.93,2.87,22.63,8.62,29.1,5.75,6.47,13.28,9.7,22.6,9.7,4.61,0,9.23-.9,13.86-2.71,4.63-1.81,8.61-4,11.93-6.58v-13.83h-25.2Z"/><path class="cls-4" d="M463.07,234.54v-108.07h22v89.71h54.71v18.36h-76.71Z"/><path class="cls-4" d="M555.46,234.54v-108.96h80.79v18.43h-58.79v24.16h54.71v18.36h-54.71v29.66h60.87v18.36h-82.88Z"/><path class="cls-3" d="M209.74,402.08v-108.96h22v108.96h-22Z"/><path class="cls-3" d="M252.78,293.12h43.56c8.62,0,15.05.36,19.29,1.08,4.24.72,8.03,2.22,11.37,4.5,3.35,2.28,6.13,5.31,8.36,9.1,2.23,3.79,3.34,8.04,3.34,12.75,0,5.1-1.38,9.79-4.12,14.05-2.75,4.26-6.48,7.46-11.19,9.59,6.64,1.93,11.74,5.23,15.31,9.89,3.57,4.66,5.35,10.13,5.35,16.43,0,4.96-1.15,9.77-3.46,14.46-2.3,4.68-5.45,8.42-9.44,11.22-3.99,2.8-8.91,4.52-14.75,5.17-3.67.4-12.51.64-26.54.74h-37.09v-108.96ZM274.78,311.26v25.2h14.42c8.57,0,13.9-.12,15.98-.37,3.76-.45,6.73-1.75,8.88-3.9s3.23-4.99,3.23-8.51-.93-6.11-2.79-8.21c-1.86-2.11-4.62-3.38-8.29-3.83-2.18-.25-8.45-.37-18.81-.37h-12.64ZM274.78,354.59v29.14h20.37c7.93,0,12.96-.22,15.09-.67,3.27-.59,5.93-2.04,7.99-4.35,2.06-2.3,3.08-5.39,3.08-9.25,0-3.27-.79-6.04-2.38-8.32-1.59-2.28-3.88-3.94-6.88-4.98-3-1.04-9.5-1.56-19.51-1.56h-17.76Z"/><path class="cls-3" d="M362.34,402.08v-108.96h32.93l19.77,74.33,19.55-74.33h33v108.96h-20.44v-85.77l-21.63,85.77h-21.18l-21.56-85.77v85.77h-20.44Z"/><path class="cls-3" d="M539.98,312.44v-19.33h20.89v19.33h-20.89ZM539.98,402.08v-78.94h20.89v78.94h-20.89Z"/><rect class="cls-2" x="290.95" y="613.69" width="166.28" height="10"/></g></svg>